<?xml version="1.0" standalone="no"?><svg xmlns="http://www.w3.org/2000/svg" viewBox="0 0 1440 320"><path fill="#0cc292" fill-opacity="1" d="M0,32L16,48C32,64,64,96,96,138.7C128,181,160,235,192,250.7C224,267,256,245,288,213.3C320,181,352,139,384,138.7C416,139,448,181,480,192C512,203,544,181,576,149.3C608,117,640,75,672,101.3C704,128,736,224,768,256C800,288,832,256,864,218.7C896,181,928,139,960,149.3C992,160,1024,224,1056,261.3C1088,299,1120,309,1152,261.3C1184,213,1216,107,1248,74.7C1280,43,1312,85,1344,117.3C1376,149,1408,171,1424,181.3L1440,192L1440,320L1424,320C1408,320,1376,320,1344,320C1312,320,1280,320,1248,320C1216,320,1184,320,1152,320C1120,320,1088,320,1056,320C1024,320,992,320,960,320C928,320,896,320,864,320C832,320,800,320,768,320C736,320,704,320,672,320C640,320,608,320,576,320C544,320,512,320,480,320C448,320,416,320,384,320C352,320,320,320,288,320C256,320,224,320,192,320C160,320,128,320,96,320C64,320,32,320,16,320L0,320Z"></path></svg>