<?xml version="1.0" standalone="no"?><svg xmlns="http://www.w3.org/2000/svg" viewBox="0 0 1440 320"><path fill="#0cc292" fill-opacity="1" d="M0,64L18.5,64C36.9,64,74,64,111,69.3C147.7,75,185,85,222,117.3C258.5,149,295,203,332,202.7C369.2,203,406,149,443,128C480,107,517,117,554,133.3C590.8,149,628,171,665,197.3C701.5,224,738,256,775,229.3C812.3,203,849,117,886,106.7C923.1,96,960,160,997,186.7C1033.8,213,1071,203,1108,181.3C1144.6,160,1182,128,1218,138.7C1255.4,149,1292,203,1329,192C1366.2,181,1403,107,1422,69.3L1440,32L1440,320L1421.5,320C1403.1,320,1366,320,1329,320C1292.3,320,1255,320,1218,320C1181.5,320,1145,320,1108,320C1070.8,320,1034,320,997,320C960,320,923,320,886,320C849.2,320,812,320,775,320C738.5,320,702,320,665,320C627.7,320,591,320,554,320C516.9,320,480,320,443,320C406.2,320,369,320,332,320C295.4,320,258,320,222,320C184.6,320,148,320,111,320C73.8,320,37,320,18,320L0,320Z"></path></svg>